<svg width="399.99999999999994" height="750" xmlns="http://www.w3.org/2000/svg">

 <g>
  <title>Layer 1</title>
  <path stroke="null" id="svg_2" d="m-222.3125,597.472l14.12463,6.30101c14.12463,6.06546 42.3739,19.0208 70.62317,40.80934c28.24927,21.78854 56.49853,53.58802 84.7478,40.80934c28.24927,-12.54313 56.49853,-69.07555 84.7478,-72.19661c28.24927,-3.35661 56.49854,47.28701 84.7478,47.11035c28.24927,0.17666 61.11391,-74.72897 84.7478,-69.13444c23.63389,5.59453 31.8832,17.01142 84.7478,15.72308c52.8646,-1.28834 56.49854,53.58802 84.74781,50.23141c28.24926,-3.12106 56.49853,-40.80934 70.62316,-59.65348l14.12464,-18.84414l0,169.59726l-14.12464,0c-14.12463,0 -42.3739,0 -70.62316,0c-28.24927,0 -56.49854,0 -84.74781,0c-28.24926,0 -56.49853,0 -84.7478,0c-28.24926,0 -56.49853,0 -84.7478,0c-28.24926,0 -56.49853,0 -84.7478,0c-28.24927,0 -56.49853,0 -84.7478,0c-28.24927,0 -56.49853,0 -84.7478,0c-28.24927,0 -56.49854,0 -70.62317,0l-14.12463,0l0,-150.75312z" fill="#181e22"/>
  <path stroke="null" id="svg_1" d="m-214.92811,615.01082l14.12463,6.30101c14.12463,6.06546 42.3739,19.0208 70.62317,40.80934c28.24927,21.78854 56.49853,53.58802 84.7478,40.80934c28.24927,-12.54313 56.49853,-69.07555 84.7478,-72.19661c28.24927,-3.35661 56.49853,47.28701 84.7478,47.11035c28.24927,0.17666 56.49853,-76.26743 84.7478,-69.13444c28.24927,7.13299 31.8832,13.9345 84.7478,15.72308c52.8646,1.78858 56.49853,53.58802 84.7478,50.23141c28.24927,-3.12106 56.49853,-40.80934 70.62317,-59.65348l14.12463,-18.84414l0,169.59726l-14.12463,0c-14.12463,0 -42.3739,0 -70.62317,0c-28.24927,0 -56.49853,0 -84.7478,0c-28.24927,0 -56.49853,0 -84.7478,0c-28.24927,0 -56.49853,0 -84.7478,0c-28.24927,0 -56.49853,0 -84.7478,0c-28.24927,0 -56.49853,0 -84.7478,0c-28.24927,0 -56.49853,0 -84.7478,0c-28.24927,0 -56.49853,0 -70.62317,0l-14.12463,0l0,-150.75312z" fill="#222e36"/>
 </g>
</svg>