<svg width="1440" height="600" xmlns="http://www.w3.org/2000/svg">

 <g>
  <title>Layer 1</title>
  <path stroke="null" id="svg_3" d="m-47.27301,580.36537l37.77777,-68.8821c45.05053,7.8819 149.69712,31.73667 232.52543,-13.14524c82.8283,-44.8819 147.4747,-67.79095 230.303,-74.7c82.82831,-6.90905 142.02013,-10.54543 224.84844,26.75457c82.8283,37.7 169.29299,74.118 263.03043,91.27247c93.73745,17.15448 167.4748,23.5182 250.30311,-19.4818c82.8283,-43 165.6566,-117 207.07076,-154.7l41.41415,-37.3l0,288l-41.41415,0c-41.41416,0 -124.24246,0 -207.07076,0c-82.82831,0 -165.65661,0 -248.48492,0c-82.8283,0 -165.6566,0 -248.48491,0c-82.8283,0 -165.65661,0 -248.48491,0c-82.8283,0 -165.65661,0 -248.48491,0c-82.82831,0 -165.65661,0 -207.07076,0l-41.41416,0l3.63639,-37.8179z" fill="#181e22"/>
  <path stroke="null" id="svg_1" d="m-40.00025,605.82004l37.77777,-68.8821c45.05053,7.88191 149.69713,31.73667 232.52543,-13.14523c82.8283,-44.88191 147.4747,-67.79095 230.30301,-74.7c82.8283,-6.90905 142.02013,-10.54543 224.84843,26.75457c82.8283,37.7 169.29299,74.118 263.03044,91.27247c93.73745,17.15447 167.4748,23.51819 250.3031,-19.48181c82.8283,-43 165.65661,-117 207.07076,-154.7l41.41415,-37.3l0,288l-41.41415,0c-41.41415,0 -124.24246,0 -207.07076,0c-82.8283,0 -165.65661,0 -248.48491,0c-82.8283,0 -165.65661,0 -248.48491,0c-82.8283,0 -165.65661,0 -248.48491,0c-82.8283,0 -165.65661,0 -248.48491,0c-82.8283,0 -165.65661,0 -207.07076,0l-41.41415,0l3.63638,-37.8179z" fill="#222e36"/>
 </g>
</svg>